<mxfile host="app.diagrams.net" agent="Mozilla/5.0 (Windows NT 10.0; Win64; x64; rv:140.0) Gecko/20100101 Firefox/140.0" version="27.2.0">
  <diagram name="Seite-1" id="XBNA-Ya1FvA0aDyJR45g">
    <mxGraphModel dx="1496" dy="758" grid="1" gridSize="10" guides="1" tooltips="1" connect="1" arrows="1" fold="1" page="1" pageScale="1" pageWidth="827" pageHeight="1169" math="0" shadow="0">
      <root>
        <mxCell id="0" />
        <mxCell id="1" parent="0" />
        <mxCell id="D2RHHTwRI6NKMXH4ruA6-1" value="" style="rounded=0;whiteSpace=wrap;html=1;fillColor=#F5F5F5;" vertex="1" parent="1">
          <mxGeometry x="-750" y="100" width="580" height="430" as="geometry" />
        </mxCell>
        <mxCell id="D2RHHTwRI6NKMXH4ruA6-3" value="&lt;b&gt;&lt;font style=&quot;font-size: 18px;&quot;&gt;Passwortmanager&lt;/font&gt;&lt;/b&gt;" style="rounded=0;whiteSpace=wrap;html=1;fillColor=#7EA6E0;" vertex="1" parent="1">
          <mxGeometry x="-750" y="90" width="580" height="40" as="geometry" />
        </mxCell>
        <mxCell id="D2RHHTwRI6NKMXH4ruA6-4" value="" style="rounded=0;whiteSpace=wrap;html=1;fillColor=#F5F5F5;" vertex="1" parent="1">
          <mxGeometry x="-750" y="130" width="250" height="210" as="geometry" />
        </mxCell>
        <mxCell id="D2RHHTwRI6NKMXH4ruA6-5" value="" style="rounded=0;whiteSpace=wrap;html=1;fillColor=#F5F5F5;" vertex="1" parent="1">
          <mxGeometry x="-500" y="130" width="330" height="210" as="geometry" />
        </mxCell>
        <mxCell id="D2RHHTwRI6NKMXH4ruA6-6" value="&lt;font style=&quot;font-size: 14px;&quot;&gt;&lt;b&gt;Passwortgenerator&lt;/b&gt;&lt;/font&gt;" style="text;html=1;align=center;verticalAlign=middle;whiteSpace=wrap;rounded=0;" vertex="1" parent="1">
          <mxGeometry x="-750" y="130" width="140" height="30" as="geometry" />
        </mxCell>
        <mxCell id="D2RHHTwRI6NKMXH4ruA6-7" value="&lt;font style=&quot;font-size: 14px;&quot;&gt;Passwortlänge&lt;/font&gt;" style="text;html=1;align=center;verticalAlign=middle;whiteSpace=wrap;rounded=0;" vertex="1" parent="1">
          <mxGeometry x="-750" y="170" width="110" height="30" as="geometry" />
        </mxCell>
        <mxCell id="D2RHHTwRI6NKMXH4ruA6-23" value="" style="group" vertex="1" connectable="0" parent="1">
          <mxGeometry x="-640" y="170" width="62.5" height="30" as="geometry" />
        </mxCell>
        <mxCell id="D2RHHTwRI6NKMXH4ruA6-19" value="" style="rounded=0;whiteSpace=wrap;html=1;" vertex="1" parent="D2RHHTwRI6NKMXH4ruA6-23">
          <mxGeometry x="2.5" y="5" width="40" height="20" as="geometry" />
        </mxCell>
        <mxCell id="D2RHHTwRI6NKMXH4ruA6-18" value="&lt;div&gt;12&lt;/div&gt;" style="text;html=1;align=center;verticalAlign=middle;whiteSpace=wrap;rounded=0;" vertex="1" parent="D2RHHTwRI6NKMXH4ruA6-23">
          <mxGeometry width="45" height="30" as="geometry" />
        </mxCell>
        <mxCell id="D2RHHTwRI6NKMXH4ruA6-21" value="" style="rounded=0;whiteSpace=wrap;html=1;" vertex="1" parent="D2RHHTwRI6NKMXH4ruA6-23">
          <mxGeometry x="42.5" y="5" width="20" height="20" as="geometry" />
        </mxCell>
        <mxCell id="D2RHHTwRI6NKMXH4ruA6-20" value="" style="shape=image;html=1;verticalAlign=top;verticalLabelPosition=bottom;labelBackgroundColor=#ffffff;imageAspect=0;aspect=fixed;image=https://cdn2.iconfinder.com/data/icons/essential-web-2/50/up-down-triangle-direction-arrow-128.png" vertex="1" parent="D2RHHTwRI6NKMXH4ruA6-23">
          <mxGeometry x="42.5" y="5" width="20" height="20" as="geometry" />
        </mxCell>
        <mxCell id="D2RHHTwRI6NKMXH4ruA6-70" value="" style="group" vertex="1" connectable="0" parent="1">
          <mxGeometry x="-743" y="190" width="96" height="70" as="geometry" />
        </mxCell>
        <mxCell id="D2RHHTwRI6NKMXH4ruA6-62" value="" style="rounded=0;whiteSpace=wrap;html=1;" vertex="1" parent="D2RHHTwRI6NKMXH4ruA6-70">
          <mxGeometry y="10" width="8.75" height="10" as="geometry" />
        </mxCell>
        <mxCell id="D2RHHTwRI6NKMXH4ruA6-63" value="" style="rounded=0;whiteSpace=wrap;html=1;" vertex="1" parent="D2RHHTwRI6NKMXH4ruA6-70">
          <mxGeometry y="30" width="8.75" height="10" as="geometry" />
        </mxCell>
        <mxCell id="D2RHHTwRI6NKMXH4ruA6-64" value="" style="rounded=0;whiteSpace=wrap;html=1;" vertex="1" parent="D2RHHTwRI6NKMXH4ruA6-70">
          <mxGeometry y="50" width="8.75" height="10" as="geometry" />
        </mxCell>
        <mxCell id="D2RHHTwRI6NKMXH4ruA6-65" value="&lt;font style=&quot;font-size: 14px;&quot;&gt;Großbuchstaben&lt;/font&gt;" style="text;html=1;align=center;verticalAlign=middle;whiteSpace=wrap;rounded=0;" vertex="1" parent="D2RHHTwRI6NKMXH4ruA6-70">
          <mxGeometry x="36" width="60" height="30" as="geometry" />
        </mxCell>
        <mxCell id="D2RHHTwRI6NKMXH4ruA6-66" value="&lt;font style=&quot;font-size: 14px;&quot;&gt;Zahlen&amp;nbsp;&amp;nbsp;&lt;/font&gt;" style="text;html=1;align=center;verticalAlign=middle;whiteSpace=wrap;rounded=0;" vertex="1" parent="D2RHHTwRI6NKMXH4ruA6-70">
          <mxGeometry x="10" y="20" width="60" height="30" as="geometry" />
        </mxCell>
        <mxCell id="D2RHHTwRI6NKMXH4ruA6-67" value="&lt;font style=&quot;font-size: 14px;&quot;&gt;Sonderzeichen&lt;/font&gt;" style="text;html=1;align=center;verticalAlign=middle;whiteSpace=wrap;rounded=0;" vertex="1" parent="D2RHHTwRI6NKMXH4ruA6-70">
          <mxGeometry x="31" y="40" width="60" height="30" as="geometry" />
        </mxCell>
        <mxCell id="D2RHHTwRI6NKMXH4ruA6-71" value="Passwort generieren" style="rounded=0;whiteSpace=wrap;html=1;fillColor=#7EA6E0;" vertex="1" parent="1">
          <mxGeometry x="-730" y="267.5" width="203" height="25" as="geometry" />
        </mxCell>
        <mxCell id="D2RHHTwRI6NKMXH4ruA6-72" value="&lt;font style=&quot;font-size: 14px;&quot;&gt;&lt;b&gt;Neue Zugangsdaten speichern&lt;/b&gt;&lt;/font&gt;" style="text;html=1;align=center;verticalAlign=middle;whiteSpace=wrap;rounded=0;" vertex="1" parent="1">
          <mxGeometry x="-500" y="130" width="220" height="30" as="geometry" />
        </mxCell>
        <mxCell id="D2RHHTwRI6NKMXH4ruA6-79" value="Speichern" style="rounded=0;whiteSpace=wrap;html=1;fillColor=#7EA6E0;" vertex="1" parent="1">
          <mxGeometry x="-436.5" y="285.5" width="203" height="25" as="geometry" />
        </mxCell>
        <mxCell id="D2RHHTwRI6NKMXH4ruA6-81" value="" style="rounded=0;whiteSpace=wrap;html=1;fillColor=#FFFFFF;" vertex="1" parent="1">
          <mxGeometry x="-730" y="300" width="203" height="25" as="geometry" />
        </mxCell>
        <mxCell id="D2RHHTwRI6NKMXH4ruA6-89" value="" style="group" vertex="1" connectable="0" parent="1">
          <mxGeometry x="-500" y="160" width="321" height="110" as="geometry" />
        </mxCell>
        <mxCell id="D2RHHTwRI6NKMXH4ruA6-73" value="&lt;font style=&quot;font-size: 14px;&quot;&gt;Benutzername&lt;/font&gt;" style="text;html=1;align=center;verticalAlign=middle;whiteSpace=wrap;rounded=0;" vertex="1" parent="D2RHHTwRI6NKMXH4ruA6-89">
          <mxGeometry x="1" width="110" height="30" as="geometry" />
        </mxCell>
        <mxCell id="D2RHHTwRI6NKMXH4ruA6-74" value="&lt;font style=&quot;font-size: 14px;&quot;&gt;Passwort&lt;/font&gt;" style="text;html=1;align=center;verticalAlign=middle;whiteSpace=wrap;rounded=0;" vertex="1" parent="D2RHHTwRI6NKMXH4ruA6-89">
          <mxGeometry y="30" width="80" height="30" as="geometry" />
        </mxCell>
        <mxCell id="D2RHHTwRI6NKMXH4ruA6-76" value="" style="rounded=0;whiteSpace=wrap;html=1;" vertex="1" parent="D2RHHTwRI6NKMXH4ruA6-89">
          <mxGeometry x="111" y="5" width="210" height="20" as="geometry" />
        </mxCell>
        <mxCell id="D2RHHTwRI6NKMXH4ruA6-77" value="" style="rounded=0;whiteSpace=wrap;html=1;" vertex="1" parent="D2RHHTwRI6NKMXH4ruA6-89">
          <mxGeometry x="111" y="35" width="210" height="20" as="geometry" />
        </mxCell>
        <mxCell id="D2RHHTwRI6NKMXH4ruA6-87" value="" style="group" vertex="1" connectable="0" parent="D2RHHTwRI6NKMXH4ruA6-89">
          <mxGeometry x="111" y="55" width="139" height="30" as="geometry" />
        </mxCell>
        <mxCell id="D2RHHTwRI6NKMXH4ruA6-85" value="" style="rounded=0;whiteSpace=wrap;html=1;" vertex="1" parent="D2RHHTwRI6NKMXH4ruA6-87">
          <mxGeometry y="10" width="8.75" height="10" as="geometry" />
        </mxCell>
        <mxCell id="D2RHHTwRI6NKMXH4ruA6-86" value="&lt;font style=&quot;font-size: 14px;&quot;&gt;Passwort Anzeigen&lt;/font&gt;" style="text;html=1;align=center;verticalAlign=middle;whiteSpace=wrap;rounded=0;" vertex="1" parent="D2RHHTwRI6NKMXH4ruA6-87">
          <mxGeometry x="15" width="124" height="30" as="geometry" />
        </mxCell>
        <mxCell id="D2RHHTwRI6NKMXH4ruA6-88" value="" style="group" vertex="1" connectable="0" parent="D2RHHTwRI6NKMXH4ruA6-89">
          <mxGeometry x="14" y="80" width="307" height="30" as="geometry" />
        </mxCell>
        <mxCell id="D2RHHTwRI6NKMXH4ruA6-83" value="&lt;font style=&quot;font-size: 14px;&quot;&gt;Beschreibung&lt;/font&gt;" style="text;html=1;align=center;verticalAlign=middle;whiteSpace=wrap;rounded=0;" vertex="1" parent="D2RHHTwRI6NKMXH4ruA6-88">
          <mxGeometry width="80" height="30" as="geometry" />
        </mxCell>
        <mxCell id="D2RHHTwRI6NKMXH4ruA6-84" value="" style="rounded=0;whiteSpace=wrap;html=1;" vertex="1" parent="D2RHHTwRI6NKMXH4ruA6-88">
          <mxGeometry x="97" y="5" width="210" height="20" as="geometry" />
        </mxCell>
        <mxCell id="D2RHHTwRI6NKMXH4ruA6-91" value="&lt;font style=&quot;font-size: 14px;&quot;&gt;&lt;b&gt;Gespeicherte Passwörter&lt;/b&gt;&lt;/font&gt;" style="text;html=1;align=center;verticalAlign=middle;whiteSpace=wrap;rounded=0;" vertex="1" parent="1">
          <mxGeometry x="-750" y="340" width="180" height="30" as="geometry" />
        </mxCell>
        <mxCell id="D2RHHTwRI6NKMXH4ruA6-92" value="" style="rounded=0;whiteSpace=wrap;html=1;" vertex="1" parent="1">
          <mxGeometry x="-740" y="370" width="560" height="30" as="geometry" />
        </mxCell>
        <mxCell id="D2RHHTwRI6NKMXH4ruA6-93" value="" style="rounded=0;whiteSpace=wrap;html=1;fillColor=#F5F5F5;" vertex="1" parent="1">
          <mxGeometry x="-740" y="400" width="560" height="30" as="geometry" />
        </mxCell>
        <mxCell id="D2RHHTwRI6NKMXH4ruA6-94" value="" style="rounded=0;whiteSpace=wrap;html=1;fillColor=#FFFFFF;" vertex="1" parent="1">
          <mxGeometry x="-740" y="430" width="560" height="30" as="geometry" />
        </mxCell>
        <mxCell id="D2RHHTwRI6NKMXH4ruA6-95" value="" style="rounded=0;whiteSpace=wrap;html=1;fillColor=#FFFFFF;" vertex="1" parent="1">
          <mxGeometry x="-740" y="460" width="560" height="30" as="geometry" />
        </mxCell>
        <mxCell id="D2RHHTwRI6NKMXH4ruA6-99" value="user123" style="text;html=1;align=center;verticalAlign=middle;whiteSpace=wrap;rounded=0;" vertex="1" parent="1">
          <mxGeometry x="-741" y="400" width="60" height="30" as="geometry" />
        </mxCell>
        <mxCell id="D2RHHTwRI6NKMXH4ruA6-100" value="**********" style="text;html=1;align=center;verticalAlign=middle;whiteSpace=wrap;rounded=0;" vertex="1" parent="1">
          <mxGeometry x="-520" y="400" width="60" height="30" as="geometry" />
        </mxCell>
        <mxCell id="D2RHHTwRI6NKMXH4ruA6-101" value="Ebay" style="text;html=1;align=center;verticalAlign=middle;whiteSpace=wrap;rounded=0;" vertex="1" parent="1">
          <mxGeometry x="-332" y="400" width="60" height="30" as="geometry" />
        </mxCell>
        <mxCell id="D2RHHTwRI6NKMXH4ruA6-102" value="Amazon" style="text;html=1;align=center;verticalAlign=middle;whiteSpace=wrap;rounded=0;" vertex="1" parent="1">
          <mxGeometry x="-323" y="430" width="60" height="30" as="geometry" />
        </mxCell>
        <mxCell id="D2RHHTwRI6NKMXH4ruA6-103" value="rudi.knaller@web.de" style="text;html=1;align=center;verticalAlign=middle;whiteSpace=wrap;rounded=0;" vertex="1" parent="1">
          <mxGeometry x="-710" y="430" width="60" height="30" as="geometry" />
        </mxCell>
        <mxCell id="D2RHHTwRI6NKMXH4ruA6-105" value="Nickname23" style="text;html=1;align=center;verticalAlign=middle;whiteSpace=wrap;rounded=0;" vertex="1" parent="1">
          <mxGeometry x="-730" y="460" width="60" height="30" as="geometry" />
        </mxCell>
        <mxCell id="D2RHHTwRI6NKMXH4ruA6-106" value="********" style="text;html=1;align=center;verticalAlign=middle;whiteSpace=wrap;rounded=0;" vertex="1" parent="1">
          <mxGeometry x="-524" y="460" width="60" height="30" as="geometry" />
        </mxCell>
        <mxCell id="D2RHHTwRI6NKMXH4ruA6-107" value="Netflix" style="text;html=1;align=center;verticalAlign=middle;whiteSpace=wrap;rounded=0;" vertex="1" parent="1">
          <mxGeometry x="-326" y="460" width="60" height="30" as="geometry" />
        </mxCell>
        <mxCell id="D2RHHTwRI6NKMXH4ruA6-108" value="*******" style="text;html=1;align=center;verticalAlign=middle;whiteSpace=wrap;rounded=0;" vertex="1" parent="1">
          <mxGeometry x="-526" y="430" width="60" height="30" as="geometry" />
        </mxCell>
        <mxCell id="D2RHHTwRI6NKMXH4ruA6-110" value="Anzeigen" style="rounded=0;whiteSpace=wrap;html=1;fillColor=#7EA6E0;" vertex="1" parent="1">
          <mxGeometry x="-723" y="496" width="203" height="25" as="geometry" />
        </mxCell>
        <mxCell id="D2RHHTwRI6NKMXH4ruA6-111" value="Löschen!" style="rounded=0;whiteSpace=wrap;html=1;fillColor=#7EA6E0;" vertex="1" parent="1">
          <mxGeometry x="-391" y="496" width="103" height="25" as="geometry" />
        </mxCell>
        <mxCell id="D2RHHTwRI6NKMXH4ruA6-112" value="Benutzrename" style="text;html=1;align=center;verticalAlign=middle;whiteSpace=wrap;rounded=0;" vertex="1" parent="1">
          <mxGeometry x="-725" y="370" width="60" height="30" as="geometry" />
        </mxCell>
        <mxCell id="D2RHHTwRI6NKMXH4ruA6-113" value="Passwort" style="text;whiteSpace=wrap;html=1;" vertex="1" parent="1">
          <mxGeometry x="-515" y="370" width="60" height="30" as="geometry" />
        </mxCell>
        <mxCell id="D2RHHTwRI6NKMXH4ruA6-115" value="Beschreibung" style="text;whiteSpace=wrap;html=1;" vertex="1" parent="1">
          <mxGeometry x="-321" y="370" width="110" height="40" as="geometry" />
        </mxCell>
      </root>
    </mxGraphModel>
  </diagram>
</mxfile>
